<svg width="237" height="60" viewBox="0 0 237 60" fill="none" xmlns="http://www.w3.org/2000/svg">
<path d="M36.9404 31.8412C37.6306 31.8413 38.1902 32.4011 38.1904 33.0912C38.1904 33.7816 37.6307 34.3412 36.9404 34.3412H35.7041V40.6479H40.0986C40.4985 38.7379 42.1921 37.3032 44.2207 37.3032L44.4365 37.309C46.6619 37.4216 48.4316 39.2617 48.4316 41.5151L48.4258 41.7309C48.3132 43.9561 46.4738 45.7258 44.2207 45.726L44.0039 45.7201C42.3507 45.6365 40.9503 44.5993 40.3389 43.1479H33.2041V34.3412H25.5635V44.769C27.275 45.3038 28.5174 46.9008 28.5176 48.7885L28.5117 49.0043C28.3991 51.2296 26.5598 52.9992 24.3066 52.9994L24.0898 52.9936C21.9361 52.8846 20.2096 51.158 20.1006 49.0043L20.0947 48.7885C20.0949 46.8955 21.3443 45.2935 23.0635 44.7631V34.3412H21.2432C20.5528 34.3412 19.9932 33.7816 19.9932 33.0912C19.9934 32.4011 20.553 31.8413 21.2432 31.8412H36.9404ZM24.3066 47.0766C23.3616 47.0766 22.595 47.8435 22.5947 48.7885C22.595 49.7335 23.3616 50.4994 24.3066 50.4994C25.2515 50.4992 26.0173 49.7333 26.0176 48.7885C26.0173 47.8437 25.2515 47.0769 24.3066 47.0766ZM23.6719 7.53167C27.0367 7.35912 29.3943 8.598 30.9238 10.2934C31.9786 11.4626 32.6117 12.816 32.9443 14.0014C34.2126 13.8171 35.7526 13.8152 37.2021 14.2739C38.224 14.5972 39.2288 15.1592 40.0371 16.0707C40.6807 16.7965 41.1621 17.7036 41.4453 18.8002C42.7706 19.0944 44.3604 19.7113 45.7041 20.7563C47.4155 22.0873 48.7599 24.1549 48.5283 27.0512C48.3071 29.8158 46.8835 31.6347 45.2998 32.7465C43.7597 33.8277 42.0528 34.2592 41.0645 34.3383C40.3764 34.3933 39.7739 33.8798 39.7188 33.1918C39.6637 32.5037 40.1771 31.9012 40.8652 31.8461C41.472 31.7976 42.7371 31.4912 43.8633 30.7006C44.946 29.9405 45.8841 28.752 46.0361 26.852C46.1872 24.9628 45.3618 23.6559 44.1699 22.7289C42.9321 21.7662 41.3388 21.2614 40.2354 21.1235L39.292 21.0053L39.1543 20.0649C38.9936 18.9723 38.6159 18.2362 38.166 17.7289C37.7122 17.2173 37.1251 16.8718 36.4482 16.6576C35.0545 16.2166 33.4021 16.375 32.3066 16.684L30.8838 17.0854L30.7246 15.6147C30.62 14.647 30.1402 13.1564 29.0674 11.9672C28.0381 10.8265 26.4072 9.89503 23.7998 10.0287C21.2506 10.1596 19.6957 11.3554 18.7305 12.7973C17.7296 14.2925 17.3567 16.0775 17.3291 17.2328C17.3127 17.9228 16.7398 18.4688 16.0498 18.4526C15.3597 18.4361 14.8127 17.8634 14.8291 17.1733C14.8388 16.7661 14.8805 16.3058 14.96 15.8119C11.6824 15.4592 9.73531 16.2871 8.59082 17.2787C7.29713 18.3999 6.84174 19.8866 6.79395 20.7201L6.73242 21.8002L5.6543 21.894C5.1875 21.9347 4.38642 22.1942 3.72852 22.8696C3.10444 23.5104 2.51791 24.6195 2.58398 26.5395C2.70685 30.1025 5.41265 31.6639 6.85059 32.0326H17.2236C17.9138 32.0327 18.4734 32.5926 18.4736 33.2826C18.4736 33.973 17.9139 34.5326 17.2236 34.5326H15.2275V43.5297H8.09375C7.48258 44.9818 6.08137 46.0193 4.42773 46.103L4.21094 46.1088C1.95781 46.1086 0.118453 44.3389 0.00585938 42.1137L0 41.8979C0 39.6445 1.76974 37.8044 3.99512 37.6918L4.21094 37.686C6.23917 37.686 7.93171 39.1203 8.33203 41.0297H12.7275V34.5326H6.55762L6.42383 34.5034C4.38078 34.0493 0.265964 31.8462 0.0859375 26.6254C-0.000794165 24.105 0.784663 22.3093 1.9375 21.1254C2.71597 20.3262 3.62169 19.8476 4.4375 19.601C4.72543 18.2895 5.46981 16.6745 6.95312 15.3891C8.78451 13.8022 11.5847 12.8499 15.6289 13.3725C15.8915 12.7093 16.228 12.0421 16.6533 11.4067C18.0074 9.38386 20.249 7.70731 23.6719 7.53167ZM4.21094 40.186C3.26597 40.1862 2.5 40.9528 2.5 41.8979C2.50027 42.8427 3.26613 43.6086 4.21094 43.6088C5.15597 43.6088 5.92258 42.8429 5.92285 41.8979C5.92285 40.9527 5.15614 40.186 4.21094 40.186ZM44.2207 39.8032C43.2755 39.8032 42.5088 40.5699 42.5088 41.5151C42.5091 42.46 43.2757 43.226 44.2207 43.226C45.1655 43.2257 45.9314 42.4599 45.9316 41.5151C45.9316 40.57 45.1657 39.8034 44.2207 39.8032Z" fill="url(#paint0_linear_5867_13005)"/>
<path d="M66.2909 32.3845C64.6459 32.3845 63.1932 32.1068 61.9328 31.5514C60.6724 30.9746 59.679 30.1628 58.9526 29.116C58.2263 28.0478 57.8524 26.7553 57.8311 25.2385H62.1571C62.1998 26.2853 62.5737 27.1719 63.2787 27.8983C64.005 28.6033 64.9984 28.9557 66.2588 28.9557C67.3484 28.9557 68.2136 28.6994 68.8545 28.1867C69.4954 27.6526 69.8158 26.9476 69.8158 26.0717C69.8158 25.1531 69.5274 24.4374 68.9506 23.9247C68.3952 23.412 67.6474 22.9954 66.7075 22.675C65.7675 22.3545 64.7634 22.0127 63.6953 21.6495C61.9648 21.0514 60.6403 20.2823 59.7217 19.3423C58.8244 18.4023 58.3758 17.1526 58.3758 15.5931C58.3544 14.2685 58.6642 13.1363 59.3051 12.1963C59.9674 11.235 60.8646 10.4979 61.9969 9.98522C63.1291 9.45114 64.4323 9.1841 65.9063 9.1841C67.4018 9.1841 68.7156 9.45114 69.8479 9.98522C71.0015 10.5193 71.8987 11.267 72.5396 12.2284C73.2019 13.1897 73.5544 14.3326 73.5971 15.6572H69.207C69.1856 14.8667 68.8758 14.1724 68.2777 13.5742C67.7009 12.9547 66.889 12.6449 65.8423 12.6449C64.945 12.6236 64.1866 12.8479 63.5671 13.3179C62.9689 13.7665 62.6698 14.4288 62.6698 15.3047C62.6698 16.0524 62.9048 16.6505 63.3748 17.0992C63.8448 17.5264 64.4857 17.8896 65.2975 18.1887C66.1093 18.4878 67.0386 18.8082 68.0854 19.15C69.1963 19.5346 70.211 19.9832 71.1296 20.4959C72.0483 21.0086 72.7853 21.6923 73.3407 22.5468C73.8962 23.3799 74.1739 24.4588 74.1739 25.7833C74.1739 26.9583 73.8748 28.0478 73.2766 29.0519C72.6785 30.0559 71.7919 30.8678 70.6169 31.4873C69.442 32.0855 67.9999 32.3845 66.2909 32.3845ZM84.7384 32.3845C83.3712 32.3845 82.2496 32.1709 81.3737 31.7436C80.4978 31.295 79.8462 30.7075 79.419 29.9812C78.9917 29.2548 78.7781 28.4537 78.7781 27.5778C78.7781 26.1038 79.3549 24.9074 80.5085 23.9888C81.6621 23.0702 83.3925 22.6109 85.6998 22.6109H89.7374V22.2263C89.7374 21.1368 89.4276 20.3357 88.8081 19.823C88.1886 19.3103 87.4195 19.0539 86.5009 19.0539C85.6677 19.0539 84.9414 19.2569 84.3218 19.6628C83.7023 20.0473 83.3178 20.6241 83.1682 21.3932H79.1626C79.2694 20.2396 79.654 19.2355 80.3162 18.381C80.9999 17.5264 81.8758 16.8749 82.9439 16.4262C84.0121 15.9562 85.2084 15.7212 86.5329 15.7212C88.7974 15.7212 90.5813 16.2874 91.8844 17.4196C93.1876 18.5519 93.8391 20.1541 93.8391 22.2263V32H90.3463L89.9617 29.4364C89.4917 30.2909 88.8295 30.9959 87.9749 31.5514C87.1418 32.1068 86.0629 32.3845 84.7384 32.3845ZM85.6677 29.1801C86.8427 29.1801 87.7506 28.7955 88.3915 28.0264C89.0538 27.2574 89.4704 26.3067 89.6413 25.1745H86.1484C85.0589 25.1745 84.2791 25.3774 83.8091 25.7833C83.3391 26.1678 83.1041 26.6485 83.1041 27.2253C83.1041 27.8449 83.3391 28.3255 83.8091 28.6673C84.2791 29.0092 84.8986 29.1801 85.6677 29.1801ZM99.3556 32V8.92774H103.457V32H99.3556ZM116.973 32.3845C115.371 32.3845 113.951 32.0427 112.712 31.3591C111.472 30.6755 110.5 29.7141 109.795 28.4751C109.09 27.236 108.738 25.8047 108.738 24.1811C108.738 22.5361 109.08 21.0727 109.763 19.7909C110.468 18.5091 111.43 17.5157 112.647 16.8108C113.887 16.0844 115.339 15.7212 117.006 15.7212C118.565 15.7212 119.943 16.0631 121.139 16.7467C122.336 17.4303 123.265 18.3703 123.927 19.5666C124.611 20.7416 124.953 22.0554 124.953 23.5081C124.953 23.7431 124.942 23.9888 124.921 24.2452C124.921 24.5015 124.91 24.7686 124.889 25.0463H112.808C112.893 26.2853 113.32 27.2574 114.089 27.9624C114.88 28.6673 115.831 29.0198 116.941 29.0198C117.775 29.0198 118.469 28.8382 119.024 28.4751C119.601 28.0905 120.028 27.5992 120.306 27.001H124.472C124.173 28.0051 123.671 28.9237 122.966 29.7569C122.282 30.5687 121.428 31.2096 120.402 31.6796C119.398 32.1495 118.255 32.3845 116.973 32.3845ZM117.006 19.0539C116.001 19.0539 115.115 19.3423 114.346 19.9191C113.577 20.4746 113.085 21.3291 112.872 22.4827H120.787C120.723 21.4359 120.338 20.6027 119.633 19.9832C118.928 19.3637 118.052 19.0539 117.006 19.0539ZM136.574 32.3845C135.164 32.3845 133.925 32.1602 132.857 31.7116C131.789 31.2416 130.934 30.6007 130.293 29.7889C129.652 28.9771 129.268 28.0371 129.139 26.969H133.273C133.401 27.5885 133.743 28.1226 134.299 28.5712C134.876 28.9985 135.613 29.2121 136.51 29.2121C137.407 29.2121 138.059 29.0305 138.465 28.6673C138.892 28.3042 139.105 27.8876 139.105 27.4176C139.105 26.734 138.806 26.2747 138.208 26.0397C137.61 25.7833 136.777 25.5376 135.709 25.3026C135.025 25.1531 134.331 24.9715 133.626 24.7579C132.921 24.5442 132.269 24.2772 131.671 23.9568C131.094 23.6149 130.624 23.1877 130.261 22.675C129.898 22.1409 129.716 21.4893 129.716 20.7202C129.716 19.3103 130.272 18.1246 131.383 17.1633C132.515 16.2019 134.096 15.7212 136.125 15.7212C138.005 15.7212 139.501 16.1592 140.612 17.0351C141.744 17.911 142.417 19.118 142.63 20.6561H138.753C138.518 19.4812 137.631 18.8937 136.093 18.8937C135.324 18.8937 134.726 19.0432 134.299 19.3423C133.893 19.6414 133.69 20.0152 133.69 20.4639C133.69 20.9339 134 21.3077 134.619 21.5854C135.239 21.8632 136.061 22.1195 137.087 22.3545C138.197 22.6109 139.212 22.8993 140.131 23.2197C141.071 23.5188 141.819 23.9781 142.374 24.5977C142.929 25.1958 143.207 26.061 143.207 27.1933C143.229 28.176 142.972 29.0626 142.438 29.853C141.904 30.6434 141.135 31.263 140.131 31.7116C139.127 32.1602 137.941 32.3845 136.574 32.3845ZM149.18 32V19.5346H147.001V16.1058H149.18V14.2472C149.18 12.3245 149.661 10.9572 150.622 10.1454C151.605 9.33364 152.929 8.92774 154.596 8.92774H156.358V12.4206H155.236C154.531 12.4206 154.029 12.5595 153.73 12.8372C153.431 13.1149 153.282 13.5849 153.282 14.2472V16.1058H156.711V19.5346H153.282V32H149.18ZM168.562 32.3845C167.024 32.3845 165.635 32.032 164.396 31.3271C163.179 30.6221 162.207 29.65 161.48 28.411C160.775 27.1506 160.423 25.6979 160.423 24.0529C160.423 22.4079 160.786 20.9659 161.512 19.7268C162.239 18.4664 163.211 17.4837 164.428 16.7787C165.667 16.0737 167.056 15.7212 168.594 15.7212C170.111 15.7212 171.478 16.0737 172.696 16.7787C173.935 17.4837 174.907 18.4664 175.612 19.7268C176.338 20.9659 176.701 22.4079 176.701 24.0529C176.701 25.6979 176.338 27.1506 175.612 28.411C174.907 29.65 173.935 30.6221 172.696 31.3271C171.457 32.032 170.079 32.3845 168.562 32.3845ZM168.562 28.8276C169.63 28.8276 170.56 28.4323 171.35 27.6419C172.14 26.8301 172.536 25.6338 172.536 24.0529C172.536 22.472 172.14 21.2864 171.35 20.4959C170.56 19.6841 169.641 19.2782 168.594 19.2782C167.505 19.2782 166.565 19.6841 165.774 20.4959C165.005 21.2864 164.621 22.472 164.621 24.0529C164.621 25.6338 165.005 26.8301 165.774 27.6419C166.565 28.4323 167.494 28.8276 168.562 28.8276ZM181.971 32V16.1058H185.624L186.009 19.0859C186.586 18.0605 187.365 17.2487 188.348 16.6505C189.352 16.031 190.527 15.7212 191.873 15.7212V20.0473H190.719C189.822 20.0473 189.021 20.1861 188.316 20.4639C187.611 20.7416 187.056 21.2223 186.65 21.9059C186.265 22.5895 186.073 23.5402 186.073 24.7579V32H181.971ZM203.784 32.3845C202.16 32.3845 200.729 32.032 199.49 31.3271C198.251 30.6221 197.268 29.6394 196.542 28.3789C195.837 27.1185 195.484 25.6765 195.484 24.0529C195.484 22.4293 195.837 20.9873 196.542 19.7268C197.268 18.4664 198.251 17.4837 199.49 16.7787C200.729 16.0737 202.16 15.7212 203.784 15.7212C205.813 15.7212 207.522 16.2553 208.911 17.3235C210.3 18.3703 211.186 19.823 211.571 21.6816H207.245C207.031 20.9125 206.604 20.3143 205.963 19.8871C205.343 19.4384 204.606 19.2141 203.752 19.2141C202.62 19.2141 201.658 19.6414 200.868 20.4959C200.077 21.3504 199.682 22.5361 199.682 24.0529C199.682 25.5697 200.077 26.7553 200.868 27.6099C201.658 28.4644 202.62 28.8917 203.752 28.8917C204.606 28.8917 205.343 28.678 205.963 28.2508C206.604 27.8235 207.031 27.2146 207.245 26.4242H211.571C211.186 28.2187 210.3 29.6607 208.911 30.7503C207.522 31.8398 205.813 32.3845 203.784 32.3845ZM224.536 32.3845C222.934 32.3845 221.513 32.0427 220.274 31.3591C219.035 30.6755 218.063 29.7141 217.358 28.4751C216.653 27.236 216.301 25.8047 216.301 24.1811C216.301 22.5361 216.643 21.0727 217.326 19.7909C218.031 18.5091 218.993 17.5157 220.21 16.8108C221.449 16.0844 222.902 15.7212 224.568 15.7212C226.128 15.7212 227.506 16.0631 228.702 16.7467C229.899 17.4303 230.828 18.3703 231.49 19.5666C232.174 20.7416 232.516 22.0554 232.516 23.5081C232.516 23.7431 232.505 23.9888 232.483 24.2452C232.483 24.5015 232.473 24.7686 232.451 25.0463H220.371C220.456 26.2853 220.883 27.2574 221.652 27.9624C222.443 28.6673 223.393 29.0198 224.504 29.0198C225.337 29.0198 226.032 28.8382 226.587 28.4751C227.164 28.0905 227.591 27.5992 227.869 27.001H232.035C231.736 28.0051 231.234 28.9237 230.529 29.7569C229.845 30.5687 228.991 31.2096 227.965 31.6796C226.961 32.1495 225.818 32.3845 224.536 32.3845ZM224.568 19.0539C223.564 19.0539 222.678 19.3423 221.909 19.9191C221.14 20.4746 220.648 21.3291 220.435 22.4827H228.35C228.286 21.4359 227.901 20.6027 227.196 19.9832C226.491 19.3637 225.615 19.0539 224.568 19.0539Z" fill="#3AAFA9"/>
<path d="M64.5925 53.0352C63.1256 53.0352 61.858 52.7147 60.7899 52.0738C59.7359 51.4187 58.917 50.5143 58.3331 49.3607C57.7492 48.1928 57.4572 46.8398 57.4572 45.3017C57.4572 43.7778 57.7492 42.439 58.3331 41.2854C58.917 40.1176 59.7359 39.2061 60.7899 38.5509C61.858 37.8958 63.1256 37.5682 64.5925 37.5682C66.3016 37.5682 67.6902 37.9812 68.7583 38.8073C69.8407 39.6191 70.5315 40.7584 70.8306 42.2254H68.8438C68.6159 41.2996 68.1459 40.5591 67.4338 40.0036C66.7359 39.4339 65.7888 39.1491 64.5925 39.1491C63.5243 39.1491 62.5915 39.3983 61.7939 39.8968C60.9964 40.381 60.3768 41.086 59.9353 42.0118C59.5081 42.9233 59.2944 44.0199 59.2944 45.3017C59.2944 46.5835 59.5081 47.6872 59.9353 48.613C60.3768 49.5245 60.9964 50.2295 61.7939 50.7279C62.5915 51.2122 63.5243 51.4543 64.5925 51.4543C65.7888 51.4543 66.7359 51.1837 67.4338 50.6425C68.1459 50.087 68.6159 49.3536 68.8438 48.4421H70.8306C70.5315 49.8805 69.8407 51.0057 68.7583 51.8175C67.6902 52.6293 66.3016 53.0352 64.5925 53.0352ZM80.9081 53.0352C79.9112 53.0352 79.0139 52.8073 78.2164 52.3515C77.4188 51.8958 76.785 51.2549 76.3151 50.4289C75.8593 49.5886 75.6314 48.6059 75.6314 47.4807C75.6314 46.3556 75.8664 45.38 76.3364 44.554C76.8064 43.7137 77.4402 43.0657 78.2377 42.6099C79.0495 42.1542 79.9539 41.9263 80.9509 41.9263C81.9478 41.9263 82.8451 42.1542 83.6426 42.6099C84.4402 43.0657 85.0669 43.7137 85.5226 44.554C85.9926 45.38 86.2276 46.3556 86.2276 47.4807C86.2276 48.6059 85.9926 49.5886 85.5226 50.4289C85.0526 51.2549 84.4117 51.8958 83.5999 52.3515C82.8024 52.8073 81.9051 53.0352 80.9081 53.0352ZM80.9081 51.497C81.5206 51.497 82.0902 51.3475 82.6172 51.0484C83.1442 50.7493 83.5714 50.3007 83.899 49.7025C84.2266 49.1043 84.3903 48.3637 84.3903 47.4807C84.3903 46.5977 84.2266 45.8571 83.899 45.259C83.5857 44.6608 83.1655 44.2122 82.6386 43.9131C82.1116 43.614 81.549 43.4645 80.9509 43.4645C80.3385 43.4645 79.7688 43.614 79.2418 43.9131C78.7149 44.2122 78.2876 44.6608 77.96 45.259C77.6325 45.8571 77.4687 46.5977 77.4687 47.4807C77.4687 48.3637 77.6325 49.1043 77.96 49.7025C78.2876 50.3007 78.7077 50.7493 79.2205 51.0484C79.7474 51.3475 80.31 51.497 80.9081 51.497ZM91.5 52.7788V42.1827H93.1236L93.2304 44.084C93.5722 43.4146 94.0635 42.8876 94.7044 42.5031C95.3453 42.1186 96.0717 41.9263 96.8835 41.9263C98.1368 41.9263 99.1337 42.3108 99.8743 43.0799C100.629 43.8347 101.007 45.0026 101.007 46.5835V52.7788H99.2121V46.7757C99.2121 44.5682 98.3006 43.4645 96.4776 43.4645C95.5661 43.4645 94.8041 43.7991 94.1917 44.4685C93.5935 45.1237 93.2945 46.0636 93.2945 47.2885V52.7788H91.5ZM110.562 53.0352C109.294 53.0352 108.24 52.7147 107.4 52.0738C106.56 51.4329 106.068 50.5642 105.926 49.4675H107.763C107.877 50.023 108.169 50.5072 108.639 50.9202C109.123 51.319 109.771 51.5184 110.583 51.5184C111.338 51.5184 111.893 51.3617 112.249 51.0484C112.605 50.7208 112.783 50.3363 112.783 49.8948C112.783 49.2539 112.548 48.8266 112.078 48.613C111.623 48.3994 110.975 48.2071 110.134 48.0362C109.565 47.9222 108.995 47.7585 108.425 47.5448C107.856 47.3312 107.378 47.0321 106.994 46.6476C106.609 46.2488 106.417 45.729 106.417 45.0881C106.417 44.1623 106.759 43.4075 107.443 42.8236C108.14 42.2254 109.08 41.9263 110.263 41.9263C111.388 41.9263 112.306 42.2111 113.018 42.7808C113.745 43.3363 114.165 44.1338 114.279 45.1735H112.506C112.434 44.6323 112.199 44.2122 111.801 43.9131C111.416 43.5998 110.896 43.4431 110.241 43.4431C109.6 43.4431 109.102 43.5784 108.746 43.849C108.404 44.1196 108.233 44.4756 108.233 44.9172C108.233 45.3444 108.454 45.6791 108.895 45.9212C109.351 46.1633 109.963 46.3698 110.733 46.5408C111.388 46.6832 112.007 46.8612 112.591 47.0748C113.189 47.2742 113.674 47.5804 114.044 47.9935C114.428 48.3922 114.621 48.9762 114.621 49.7452C114.635 50.6995 114.272 51.4899 113.531 52.1165C112.805 52.729 111.815 53.0352 110.562 53.0352ZM123.828 53.0352C122.575 53.0352 121.578 52.6578 120.837 51.9029C120.097 51.1338 119.726 49.9589 119.726 48.378V42.1827H121.521V48.1857C121.521 50.3933 122.425 51.497 124.234 51.497C125.16 51.497 125.922 51.1694 126.52 50.5143C127.132 49.8449 127.439 48.8978 127.439 47.673V42.1827H129.233V52.7788H127.609L127.481 50.8775C127.154 51.5469 126.662 52.0738 126.007 52.4584C125.366 52.8429 124.64 53.0352 123.828 53.0352ZM134.964 52.7788V37.3973H136.759V52.7788H134.964ZM146.664 52.7788C145.696 52.7788 144.934 52.5438 144.378 52.0738C143.823 51.6038 143.545 50.7564 143.545 49.5316V43.6994H141.708V42.1827H143.545L143.78 39.6404H145.34V42.1827H148.459V43.6994H145.34V49.5316C145.34 50.201 145.475 50.6567 145.746 50.8988C146.016 51.1267 146.493 51.2407 147.177 51.2407H148.288V52.7788H146.664ZM157.041 53.0352C156.158 53.0352 155.424 52.8856 154.84 52.5865C154.256 52.2875 153.822 51.8887 153.537 51.3902C153.252 50.8917 153.11 50.3505 153.11 49.7666C153.11 48.6842 153.523 47.851 154.349 47.2671C155.175 46.6832 156.3 46.3912 157.724 46.3912H160.587V46.263C160.587 45.3373 160.345 44.6394 159.861 44.1694C159.376 43.6852 158.728 43.4431 157.917 43.4431C157.219 43.4431 156.613 43.6211 156.101 43.9772C155.602 44.319 155.289 44.8246 155.161 45.494H153.324C153.395 44.7249 153.651 44.0769 154.093 43.5499C154.548 43.0229 155.111 42.6242 155.78 42.3536C156.45 42.0687 157.162 41.9263 157.917 41.9263C159.398 41.9263 160.509 42.3251 161.249 43.1226C162.004 43.906 162.382 44.9528 162.382 46.263V52.7788H160.779L160.672 50.8775C160.373 51.4757 159.932 51.9884 159.348 52.4156C158.778 52.8287 158.009 53.0352 157.041 53.0352ZM157.318 51.5184C158.002 51.5184 158.586 51.3404 159.07 50.9843C159.569 50.6282 159.946 50.1654 160.203 49.5957C160.459 49.026 160.587 48.4278 160.587 47.8012V47.7798H157.874C156.82 47.7798 156.072 47.965 155.631 48.3353C155.204 48.6913 154.99 49.1399 154.99 49.6811C154.99 50.2366 155.189 50.6852 155.588 51.027C156.001 51.3546 156.578 51.5184 157.318 51.5184ZM167.851 52.7788V42.1827H169.474L169.581 44.084C169.923 43.4146 170.414 42.8876 171.055 42.5031C171.696 42.1186 172.423 41.9263 173.234 41.9263C174.488 41.9263 175.485 42.3108 176.225 43.0799C176.98 43.8347 177.357 45.0026 177.357 46.5835V52.7788H175.563V46.7757C175.563 44.5682 174.651 43.4645 172.828 43.4645C171.917 43.4645 171.155 43.7991 170.543 44.4685C169.944 45.1237 169.645 46.0636 169.645 47.2885V52.7788H167.851ZM187.041 52.7788C186.072 52.7788 185.31 52.5438 184.755 52.0738C184.199 51.6038 183.922 50.7564 183.922 49.5316V43.6994H182.084V42.1827H183.922L184.157 39.6404H185.716V42.1827H188.835V43.6994H185.716V49.5316C185.716 50.201 185.851 50.6567 186.122 50.8988C186.393 51.1267 186.87 51.2407 187.553 51.2407H188.664V52.7788H187.041ZM197.951 53.0352C196.684 53.0352 195.63 52.7147 194.79 52.0738C193.949 51.4329 193.458 50.5642 193.315 49.4675H195.153C195.267 50.023 195.559 50.5072 196.029 50.9202C196.513 51.319 197.161 51.5184 197.973 51.5184C198.727 51.5184 199.283 51.3617 199.639 51.0484C199.995 50.7208 200.173 50.3363 200.173 49.8948C200.173 49.2539 199.938 48.8266 199.468 48.613C199.012 48.3994 198.364 48.2071 197.524 48.0362C196.954 47.9222 196.385 47.7585 195.815 47.5448C195.245 47.3312 194.768 47.0321 194.384 46.6476C193.999 46.2488 193.807 45.729 193.807 45.0881C193.807 44.1623 194.149 43.4075 194.832 42.8236C195.53 42.2254 196.47 41.9263 197.652 41.9263C198.777 41.9263 199.696 42.2111 200.408 42.7808C201.134 43.3363 201.555 44.1338 201.668 45.1735H199.895C199.824 44.6323 199.589 44.2122 199.19 43.9131C198.806 43.5998 198.286 43.4431 197.631 43.4431C196.99 43.4431 196.491 43.5784 196.135 43.849C195.794 44.1196 195.623 44.4756 195.623 44.9172C195.623 45.3444 195.843 45.6791 196.285 45.9212C196.741 46.1633 197.353 46.3698 198.122 46.5408C198.777 46.6832 199.397 46.8612 199.981 47.0748C200.579 47.2742 201.063 47.5804 201.433 47.9935C201.818 48.3922 202.01 48.9762 202.01 49.7452C202.025 50.6995 201.661 51.4899 200.921 52.1165C200.194 52.729 199.205 53.0352 197.951 53.0352ZM207.971 52.8856C207.615 52.8856 207.315 52.7717 207.073 52.5438C206.845 52.3017 206.732 52.0097 206.732 51.6679C206.732 51.3261 206.845 51.0413 207.073 50.8134C207.315 50.5713 207.615 50.4502 207.971 50.4502C208.312 50.4502 208.597 50.5713 208.825 50.8134C209.067 51.0413 209.188 51.3261 209.188 51.6679C209.188 52.0097 209.067 52.3017 208.825 52.5438C208.597 52.7717 208.312 52.8856 207.971 52.8856ZM215.39 39.8327C215.034 39.8327 214.735 39.7188 214.493 39.4909C214.265 39.2488 214.151 38.9497 214.151 38.5936C214.151 38.2518 214.265 37.967 214.493 37.7391C214.735 37.5112 215.034 37.3973 215.39 37.3973C215.732 37.3973 216.024 37.5112 216.266 37.7391C216.508 37.967 216.629 38.2518 216.629 38.5936C216.629 38.9497 216.508 39.2488 216.266 39.4909C216.024 39.7188 215.732 39.8327 215.39 39.8327ZM214.493 52.7788V42.1827H216.288V52.7788H214.493ZM227.017 53.0352C226.02 53.0352 225.123 52.8073 224.326 52.3515C223.528 51.8958 222.894 51.2549 222.424 50.4289C221.969 49.5886 221.741 48.6059 221.741 47.4807C221.741 46.3556 221.976 45.38 222.446 44.554C222.916 43.7137 223.549 43.0657 224.347 42.6099C225.159 42.1542 226.063 41.9263 227.06 41.9263C228.057 41.9263 228.954 42.1542 229.752 42.6099C230.549 43.0657 231.176 43.7137 231.632 44.554C232.102 45.38 232.337 46.3556 232.337 47.4807C232.337 48.6059 232.102 49.5886 231.632 50.4289C231.162 51.2549 230.521 51.8958 229.709 52.3515C228.912 52.8073 228.014 53.0352 227.017 53.0352ZM227.017 51.497C227.63 51.497 228.2 51.3475 228.726 51.0484C229.253 50.7493 229.681 50.3007 230.008 49.7025C230.336 49.1043 230.5 48.3637 230.5 47.4807C230.5 46.5977 230.336 45.8571 230.008 45.259C229.695 44.6608 229.275 44.2122 228.748 43.9131C228.221 43.614 227.658 43.4645 227.06 43.4645C226.448 43.4645 225.878 43.614 225.351 43.9131C224.824 44.2122 224.397 44.6608 224.069 45.259C223.742 45.8571 223.578 46.5977 223.578 47.4807C223.578 48.3637 223.742 49.1043 224.069 49.7025C224.397 50.3007 224.817 50.7493 225.33 51.0484C225.857 51.3475 226.419 51.497 227.017 51.497Z" fill="#3AAFA9"/>
<defs>
<linearGradient id="paint0_linear_5867_13005" x1="2.50018" y1="29.9999" x2="47.0013" y2="29.7038" gradientUnits="userSpaceOnUse">
<stop stop-color="#17252A"/>
<stop offset="1" stop-color="#3AAFA9"/>
</linearGradient>
</defs>
</svg>
