<?xml version="1.0" encoding="UTF-8"?>
<svg xmlns="http://www.w3.org/2000/svg" id="Layer_1" viewBox="0 0 277.28 85.86">
  <defs>
    <style>.cls-1{fill:#231f20;}</style>
  </defs>
  <path class="cls-1" d="M80.6.72h34.05v2.59c0,3.95-3.21,7.15-7.15,7.15h-34.05v-2.59c0-3.95,3.21-7.15,7.15-7.15Z"></path>
  <path class="cls-1" d="M243.56,18.14c-18.6,0-33.72,15.13-33.72,33.72s15.13,33.72,33.72,33.72,33.72-15.13,33.72-33.72-15.13-33.72-33.72-33.72ZM243.56,74.57c-12.52,0-22.71-10.19-22.71-22.7s10.19-22.71,22.71-22.71,22.7,10.19,22.7,22.71-10.19,22.7-22.7,22.7Z"></path>
  <path class="cls-1" d="M95.04,18.14c-18.6,0-33.72,15.13-33.72,33.72s15.13,33.72,33.72,33.72c9.87,0,18.77-4.26,24.94-11.05h-23.84c-.36.02-.73.03-1.1.03-12.52,0-22.71-10.19-22.71-22.7s10.19-22.71,22.71-22.71,22.7,10.19,22.7,22.71c0,.2-.02.39-.02.59h-35.73v.38c0,5.9,4.78,10.68,10.68,10.68h30.52v-.03h3.5c1.33-3.62,2.06-7.54,2.06-11.62,0-18.6-15.13-33.72-33.72-33.72Z"></path>
  <path class="cls-1" d="M172.16,18.23c-9.67-.72-18.57,2.66-25.14,8.58V8.89c0-4.91-3.98-8.89-8.89-8.89h-2.3v47.83h.03c-.16,1.32-.01,2.66-.01,4.03,0,18.6,15.13,33.72,33.72,33.72s34.46-15.88,33.7-35.09c-.68-16.98-14.17-30.99-31.11-32.26ZM169.58,74.57c-12.52,0-22.71-10.19-22.71-22.7s10.18-22.71,22.71-22.71,22.7,10.19,22.7,22.71-10.18,22.7-22.7,22.7Z"></path>
  <path class="cls-1" d="M36.81,46.51h-17.13c-5.61,0-8.22-4.17-8.31-8.29-.09-3.84,1.87-8.03,7.62-8.29.34-.01.68-.02,1.03-.02h24.04c4.84,0,8.77-3.93,8.77-8.77v-2.6H20.02c-.51,0-1.03.01-1.54.03C6.07,19.13-.21,29.01,0,38.48c.22,9.64,7.05,19.41,19.68,19.41h17.13c5.62,0,8.22,4.17,8.31,8.29.09,3.84-1.87,8.03-7.63,8.29-.34.01-.68.02-1.02.02H11.03c-4.84,0-8.77,3.93-8.77,8.77v2.6h34.21c.52,0,1.03-.01,1.54-.03,12.41-.56,18.69-10.44,18.48-19.9-.22-9.64-7.05-19.4-19.68-19.4Z"></path>
</svg>
